<?xml version="1.0" encoding="UTF-8"?>
<svg xmlns="http://www.w3.org/2000/svg" xmlns:xlink="http://www.w3.org/1999/xlink" width="900" height="600" viewBox="0 0 900 600">
<defs>
<g>
<g id="glyph-0-0">
<path d="M 10.800781 0 L 5.167969 0 L 5.167969 -0.507812 C 5.707031 -0.539062 6.054688 -0.585938 6.210938 -0.648438 C 6.367188 -0.710938 6.445312 -0.792969 6.445312 -0.898438 C 6.445312 -0.953125 6.417969 -1.046875 6.363281 -1.167969 C 6.304688 -1.292969 6.226562 -1.433594 6.128906 -1.59375 C 5.976562 -1.851562 5.773438 -2.171875 5.519531 -2.554688 C 5.265625 -2.9375 5 -3.335938 4.726562 -3.742188 C 3.816406 -2.6875 3.238281 -1.988281 2.992188 -1.640625 C 2.75 -1.292969 2.625 -1.0625 2.625 -0.949219 C 2.625 -0.890625 2.636719 -0.839844 2.65625 -0.796875 C 2.675781 -0.757812 2.726562 -0.714844 2.808594 -0.675781 C 2.867188 -0.640625 2.972656 -0.609375 3.121094 -0.578125 C 3.269531 -0.550781 3.441406 -0.523438 3.644531 -0.507812 L 3.644531 0 L 0.0585938 0 L 0.0585938 -0.507812 C 0.246094 -0.519531 0.394531 -0.539062 0.503906 -0.566406 C 0.617188 -0.59375 0.726562 -0.628906 0.835938 -0.675781 C 1.085938 -0.792969 1.308594 -0.941406 1.503906 -1.125 C 1.699219 -1.304688 1.902344 -1.511719 2.113281 -1.75 C 2.414062 -2.09375 2.757812 -2.484375 3.140625 -2.917969 C 3.519531 -3.351562 3.921875 -3.8125 4.34375 -4.304688 C 3.945312 -4.90625 3.546875 -5.492188 3.148438 -6.0625 C 2.746094 -6.628906 2.410156 -7.113281 2.132812 -7.511719 C 1.992188 -7.710938 1.820312 -7.914062 1.613281 -8.113281 C 1.40625 -8.3125 1.191406 -8.453125 0.964844 -8.542969 C 0.851562 -8.589844 0.726562 -8.628906 0.585938 -8.664062 C 0.449219 -8.695312 0.28125 -8.71875 0.0859375 -8.730469 L 0.0859375 -9.238281 L 5.730469 -9.238281 L 5.730469 -8.730469 C 5.289062 -8.714844 4.964844 -8.675781 4.753906 -8.613281 C 4.546875 -8.550781 4.441406 -8.460938 4.441406 -8.339844 C 4.441406 -8.277344 4.460938 -8.203125 4.5 -8.109375 C 4.542969 -8.015625 4.625 -7.867188 4.746094 -7.667969 C 4.851562 -7.496094 5.011719 -7.242188 5.230469 -6.910156 C 5.449219 -6.574219 5.699219 -6.195312 5.976562 -5.769531 C 6.796875 -6.746094 7.308594 -7.382812 7.519531 -7.679688 C 7.730469 -7.976562 7.835938 -8.179688 7.835938 -8.289062 C 7.835938 -8.414062 7.773438 -8.507812 7.652344 -8.570312 C 7.53125 -8.632812 7.25 -8.6875 6.804688 -8.730469 L 6.804688 -9.238281 L 10.402344 -9.238281 L 10.402344 -8.730469 C 10.238281 -8.726562 10.101562 -8.710938 9.996094 -8.683594 C 9.890625 -8.660156 9.769531 -8.617188 9.628906 -8.5625 C 9.359375 -8.441406 9.132812 -8.289062 8.953125 -8.113281 C 8.769531 -7.933594 8.570312 -7.726562 8.351562 -7.488281 C 8.03125 -7.128906 7.722656 -6.785156 7.429688 -6.445312 C 7.136719 -6.109375 6.777344 -5.699219 6.351562 -5.210938 C 6.878906 -4.421875 7.328125 -3.761719 7.703125 -3.226562 C 8.074219 -2.695312 8.429688 -2.191406 8.761719 -1.726562 C 8.894531 -1.527344 9.0625 -1.324219 9.265625 -1.125 C 9.472656 -0.921875 9.6875 -0.777344 9.910156 -0.691406 C 10.011719 -0.652344 10.132812 -0.613281 10.265625 -0.578125 C 10.402344 -0.542969 10.578125 -0.519531 10.800781 -0.507812 Z "/>
</g>
</g>
</defs>
<g fill="rgb(97.254902%, 44.313725%, 44.313725%)" fill-opacity="1">
<use xlink:href="#glyph-0-0" x="30" y="32.226562"/>
</g>
</svg>
